<?xml version="1.0" encoding="UTF-8"?>
<svg id="a" data-name="b" xmlns="http://www.w3.org/2000/svg" viewBox="0 0 18.66 18.61">
  <path d="M17.58,1.08C16.87,.36,15.99,0,14.98,0H3.72C2.71,0,1.83,.36,1.1,1.07,.37,1.79,0,2.66,0,3.68V14.94c0,1.01,.37,1.89,1.1,2.6,.73,.71,1.61,1.07,2.62,1.07h6.32v-7.19h-2.58v-2.86h2.58v-2.29c0-2.58,1.66-4.01,4.01-4.01,.74,0,1.55,.11,2.29,.23v2.63h-1.32c-1.26,0-1.55,.63-1.55,1.43v2h2.75l-.46,2.86h-2.29v7.19h1.5c1.01,0,1.88-.36,2.6-1.07,.72-.71,1.08-1.59,1.08-2.6V3.68c0-1.01-.37-1.88-1.08-2.6Z" style="fill: #6c1d5f;"/>
</svg>