<?xml version="1.0" encoding="utf-8"?>
<!-- Generator: Adobe Illustrator 27.0.1, SVG Export Plug-In . SVG Version: 6.00 Build 0)  -->
<svg version="1.1" id="b" xmlns="http://www.w3.org/2000/svg" xmlns:xlink="http://www.w3.org/1999/xlink" x="0px" y="0px"
	 viewBox="0 0 18.7 18.6" style="enable-background:new 0 0 18.7 18.6;" xml:space="preserve">
<style type="text/css">
	.st0{fill:#6C1D5F;}
</style>
<g>
	<path class="st0" d="M17.6,1.1C16.9,0.3,16,0,15,0H3.7c-1,0-1.9,0.4-2.6,1.1C0.4,1.8,0,2.6,0,3.7v11.3c0,1,0.4,1.9,1.1,2.6
		c0.6,0.6,1.3,0.9,2.2,1v0h0.2c0.1,0,0.1,0,0.2,0h3c0,0,0.1,0,0.1,0h0.5v-2.4c-2.6,0.6-3.2-1.1-3.2-1.1c-0.4-1.1-1-1.4-1-1.4
		c-0.9-0.6,0.1-0.6,0.1-0.6c0.9,0.1,1.4,1,1.4,1c0.8,1.4,2.2,1,2.7,0.8c0.1-0.6,0.3-1,0.6-1.3c-2.1-0.2-4.3-1-4.3-4.7
		c0-1,0.4-1.9,1-2.5C4.5,6.2,4.2,5.3,4.7,4c0,0,0.8-0.3,2.6,1c0.8-0.2,1.6-0.3,2.4-0.3c0.8,0,1.6,0.1,2.4,0.3c1.8-1.2,2.6-1,2.6-1
		c0.5,1.3,0.2,2.3,0.1,2.5c0.6,0.7,1,1.5,1,2.5c0,3.6-2.2,4.4-4.3,4.7c0.3,0.3,0.6,0.9,0.6,1.7v3.2h0H15v0c0,0,0.1,0,0.1,0h0.2v0
		c0.9-0.1,1.7-0.4,2.3-1.1c0.7-0.7,1.1-1.6,1.1-2.6V3.7C18.7,2.7,18.3,1.8,17.6,1.1z"/>
</g>
</svg>
