<svg width="18" height="19" viewBox="0 0 18 19" fill="none" xmlns="http://www.w3.org/2000/svg">
<path d="M9.03516 0.333252C4.09184 0.333252 0 4.35478 0 9.2981C0 14.2414 4.09184 18.3333 9.03516 18.3333C13.9785 18.3333 18 14.2414 18 9.2981C18 4.35478 13.9785 0.333252 9.03516 0.333252ZM13.7812 10.3528H10.0898V14.1145C10.0898 14.696 9.61629 15.1692 9.03516 15.1692C8.45367 15.1692 7.98047 14.696 7.98047 14.1145V10.3528H4.21875C3.63727 10.3528 3.16406 9.87958 3.16406 9.2981C3.16406 8.71661 3.63727 8.24341 4.21875 8.24341H7.98047V4.552C7.98047 3.97052 8.45367 3.49731 9.03516 3.49731C9.61629 3.49731 10.0898 3.97052 10.0898 4.552V8.24341H13.7812C14.3624 8.24341 14.8359 8.71661 14.8359 9.2981C14.8359 9.87958 14.3624 10.3528 13.7812 10.3528Z" fill="white"/>
</svg>
