<svg width="15" height="12" viewBox="0 0 15 12" fill="none" xmlns="http://www.w3.org/2000/svg">
<path d="M4.4375 5.95825C4.4375 4.18091 5.88477 2.70825 7.6875 2.70825C9.46484 2.70825 10.9375 4.18091 10.9375 5.95825C10.9375 7.76099 9.46484 9.20825 7.6875 9.20825C5.88477 9.20825 4.4375 7.76099 4.4375 5.95825ZM7.6875 7.9895C8.80469 7.9895 9.71875 7.10083 9.71875 5.95825C9.71875 4.84106 8.80469 3.927 7.6875 3.927C7.66211 3.927 7.63672 3.927 7.61133 3.927C7.66211 4.07935 7.6875 4.2063 7.6875 4.33325C7.6875 5.24731 6.95117 5.95825 6.0625 5.95825C5.91016 5.95825 5.7832 5.95825 5.65625 5.90747C5.65625 5.93286 5.65625 5.95825 5.65625 5.95825C5.65625 7.10083 6.54492 7.9895 7.6875 7.9895ZM2.78711 2.32739C3.98047 1.21021 5.63086 0.270752 7.6875 0.270752C9.71875 0.270752 11.3691 1.21021 12.5625 2.32739C13.7559 3.41919 14.543 4.7395 14.9238 5.65356C15 5.85669 15 6.08521 14.9238 6.28833C14.543 7.177 13.7559 8.49731 12.5625 9.6145C11.3691 10.7317 9.71875 11.6458 7.6875 11.6458C5.63086 11.6458 3.98047 10.7317 2.78711 9.6145C1.59375 8.49731 0.806641 7.177 0.425781 6.28833C0.349609 6.08521 0.349609 5.85669 0.425781 5.65356C0.806641 4.7395 1.59375 3.41919 2.78711 2.32739ZM7.6875 1.4895C6.01172 1.4895 4.66602 2.25122 3.625 3.21606C2.63477 4.13013 1.97461 5.19653 1.61914 5.95825C1.97461 6.71997 2.63477 7.81177 3.625 8.72583C4.66602 9.69067 6.01172 10.427 7.6875 10.427C9.33789 10.427 10.6836 9.69067 11.7246 8.72583C12.7148 7.81177 13.375 6.71997 13.7305 5.95825C13.375 5.19653 12.7148 4.13013 11.7246 3.21606C10.6836 2.25122 9.33789 1.4895 7.6875 1.4895Z" fill="#9D92B2"/>
</svg>
