<svg width="24" height="18" viewBox="0 0 24 18" fill="none" xmlns="http://www.w3.org/2000/svg">
<path d="M6.8999 4.39062C8.86865 2.42188 12.0679 2.42188 14.0366 4.39062C15.9351 6.25391 16.0054 9.27734 14.2827 11.2812L14.0718 11.4922C13.7554 11.8438 13.228 11.8789 12.8765 11.5977C12.5249 11.2812 12.4897 10.7539 12.8062 10.4023L12.9819 10.1914C14.1772 8.85547 14.1069 6.85156 12.8413 5.58594C11.5405 4.25 9.396 4.25 8.06006 5.58594L4.0874 9.55859C2.78662 10.8945 2.78662 13.0039 4.0874 14.3398C5.35303 15.5703 7.35693 15.6406 8.69287 14.4805L8.90381 14.3047C9.25537 13.9883 9.78271 14.0234 10.0991 14.375C10.4155 14.7266 10.3804 15.2539 10.0288 15.5703L9.81787 15.7461C7.81396 17.5039 4.79053 17.3984 2.89209 15.5352C0.92334 13.5664 0.92334 10.332 2.89209 8.36328L6.8999 4.39062ZM17.2358 13.1445C15.2319 15.1133 12.0327 15.1133 10.064 13.1445C8.16553 11.2461 8.09521 8.25781 9.81787 6.25391L9.99365 6.04297C10.3101 5.69141 10.8374 5.65625 11.189 5.97266C11.5405 6.28906 11.5757 6.81641 11.2593 7.16797L11.1187 7.34375C9.92334 8.67969 9.99365 10.6836 11.2593 11.9492C12.5601 13.25 14.7046 13.25 16.0405 11.9492L20.0132 7.97656C21.314 6.64062 21.314 4.53125 20.0132 3.19531C18.7476 1.96484 16.7437 1.89453 15.4077 3.05469L15.1968 3.23047C14.8452 3.54688 14.3179 3.51172 14.0015 3.16016C13.6851 2.80859 13.7202 2.28125 14.0718 1.96484L14.2827 1.78906C16.2866 0.03125 19.3101 0.136719 21.2085 2C23.1772 3.96875 23.1772 7.16797 21.2085 9.17188L17.2358 13.1445Z" fill="#6C1D5F"/>
</svg>
