<svg width="17" height="19" viewBox="0 0 17 19" fill="none" xmlns="http://www.w3.org/2000/svg">
<path d="M15.4062 3.39575C15.8633 3.39575 16.25 3.78247 16.25 4.2395C16.25 4.73169 15.8633 5.08325 15.4062 5.08325H14.9844L14.1406 16.509C14.0352 17.7043 13.0859 18.5833 11.8906 18.5833H4.82422C3.62891 18.5833 2.67969 17.7043 2.57422 16.509L1.73047 5.08325H1.34375C0.851562 5.08325 0.5 4.73169 0.5 4.2395C0.5 3.78247 0.851562 3.39575 1.34375 3.39575H3.76953L5.07031 1.46216C5.42188 0.934814 6.05469 0.583252 6.72266 0.583252H9.99219C10.6602 0.583252 11.293 0.934814 11.6445 1.46216L12.9453 3.39575H15.4062ZM6.72266 2.27075C6.61719 2.27075 6.51172 2.34106 6.47656 2.41138L5.80859 3.39575H10.9062L10.2383 2.41138C10.2031 2.34106 10.0977 2.27075 9.99219 2.27075H6.72266ZM13.2969 5.08325H3.41797L4.26172 16.4036C4.29688 16.6848 4.54297 16.8958 4.82422 16.8958H11.8906C12.1719 16.8958 12.418 16.6848 12.4531 16.4036L13.2969 5.08325Z" fill="white"/>
</svg>
