<?xml version="1.0" encoding="UTF-8"?>
<svg id="a" data-name="b" xmlns="http://www.w3.org/2000/svg" viewBox="0 0 18.66 18.61">
  <circle cx="13.71" cy="4.93" r=".98" style="fill: #6c1d5f;"/>
  <path d="M9.33,5.09c-2.33,0-4.22,1.89-4.22,4.21s1.89,4.22,4.22,4.22,4.22-1.89,4.22-4.22-1.89-4.21-4.22-4.21Zm0,6.95c-1.51,0-2.74-1.22-2.74-2.74s1.23-2.74,2.74-2.74,2.74,1.22,2.74,2.74-1.23,2.74-2.74,2.74Z" style="fill: #6c1d5f;"/>
  <path d="M17.58,1.08C16.87,.36,15.99,0,14.98,0H3.72C2.71,0,1.83,.36,1.1,1.07,.37,1.79,0,2.67,0,3.68V14.94c0,1.01,.37,1.89,1.1,2.6,.73,.71,1.61,1.07,2.62,1.07H14.98c1.01,0,1.88-.36,2.6-1.07,.72-.71,1.08-1.59,1.08-2.6V3.68c0-1.01-.37-1.88-1.08-2.6Zm-1.57,11.55c-.1,2.21-1.14,3.26-3.37,3.37-.87,.04-1.12,.05-3.32,.05s-2.45,0-3.32-.05c-2.23-.1-3.26-1.16-3.37-3.37-.04-.87-.05-1.13-.05-3.32s0-2.45,.05-3.32c.1-2.21,1.14-3.26,3.37-3.37,.87-.04,1.12-.05,3.32-.05s2.45,0,3.32,.05c2.22,.1,3.26,1.16,3.37,3.37,.04,.87,.05,1.12,.05,3.32s0,2.45-.05,3.32Z" style="fill: #6c1d5f;"/>
</svg>