<?xml version="1.0" encoding="UTF-8"?>
<svg id="a" data-name="b" xmlns="http://www.w3.org/2000/svg" viewBox="0 0 18.66 18.61">
  <path d="M0,3.68C0,2.67,.37,1.79,1.1,1.07,.37,1.79,0,2.66,0,3.68Z" style="fill: #6c1d5f;"/>
  <path d="M17.58,1.08C16.87,.36,15.99,0,14.98,0H3.72C2.71,0,1.83,.36,1.1,1.07,.37,1.79,0,2.67,0,3.68V14.94c0,1.01,.37,1.89,1.1,2.6,.73,.71,1.61,1.07,2.62,1.07H14.98c1.01,0,1.88-.36,2.6-1.07,.72-.71,1.08-1.59,1.08-2.6V3.68c0-1.01-.37-1.88-1.08-2.6ZM5.22,16.73H2.4V6.39h2.82v10.33ZM3.81,5.2c-.91,0-1.64-.74-1.64-1.66s.74-1.66,1.64-1.66,1.64,.74,1.64,1.66-.74,1.66-1.64,1.66Zm12.68,11.53h-2.82v-5.27c0-3.16-3.76-2.92-3.76,0v5.27h-2.82V6.39h2.82v1.66c1.31-2.43,6.58-2.61,6.58,2.33v6.35Z" style="fill: #6c1d5f;"/>
</svg>