<svg width="2184" height="1529" viewBox="0 0 2184 1529" fill="none" xmlns="http://www.w3.org/2000/svg">
<g clip-path="url(#clip0_658_201)">
<rect width="2184" height="1529" fill="#4A1E47"/>
<path d="M1776.44 -132.372C1202.34 131.347 1188.14 723.703 1956.98 823.105C2725.83 922.508 2350.53 -396.092 1776.44 -132.372Z" fill="#6C1D5F"/>
<path d="M1792.67 -94.1371C1218.57 169.583 1204.37 761.938 1973.21 861.341C2742.06 960.743 2366.76 -357.857 1792.67 -94.1371Z" stroke="white" stroke-width="2.74897"/>
<path d="M758.072 879.908C603.897 569.53 254.975 831.22 -61.4889 198.292L-242.036 1503H149.487C401.035 1503 931.537 1229.12 758.072 879.908Z" fill="#6C1D5F"/>
<path d="M762.129 859.62C607.954 549.242 279.319 812.962 -18.8879 158.976L-242.036 1463.69H35.8847C287.433 1463.69 935.594 1208.83 762.129 859.62Z" stroke="white" stroke-width="2.74897"/>
<path d="M1422.18 1787.77C1585.76 2117.08 1955.95 1839.43 2291.71 2510.95L2483.27 1126.69L2188.4 1126.69C1921.51 1126.69 1238.14 1417.27 1422.18 1787.77Z" fill="#6C1D5F"/>
<path d="M1417.88 1809.3C1581.45 2138.6 1930.12 1858.8 2246.51 2552.66L2483.27 1168.4L2188.4 1168.4C1921.51 1168.4 1233.83 1438.79 1417.88 1809.3Z" stroke="white" stroke-width="2.74897"/>
</g>
<defs>
<clipPath id="clip0_658_201">
<rect width="2184" height="1529" fill="white"/>
</clipPath>
</defs>
</svg>
