<?xml version="1.0" encoding="UTF-8"?>
<svg id="a" data-name="b" xmlns="http://www.w3.org/2000/svg" viewBox="0 0 18.66 18.61">
  <path d="M17.58,1.08C16.87,.36,15.99,0,14.98,0H3.72C2.71,0,1.83,.36,1.1,1.07,.37,1.79,0,2.67,0,3.68V14.94c0,1.01,.37,1.89,1.1,2.6,.73,.71,1.61,1.07,2.62,1.07H14.98c1.01,0,1.88-.36,2.6-1.07,.72-.71,1.08-1.59,1.08-2.6V3.68c0-1.01-.37-1.88-1.08-2.6Zm-2,5.25c.19,4.21-2.95,8.91-8.51,8.91-1.69,0-3.27-.5-4.59-1.35,1.59,.19,3.18-.25,4.44-1.24-1.31-.02-2.42-.89-2.8-2.08,.47,.09,.93,.06,1.35-.05-1.44-.29-2.44-1.59-2.4-2.98,.4,.22,.87,.36,1.36,.37-1.33-.89-1.71-2.65-.93-4,1.48,1.81,3.69,3,6.17,3.13-.44-1.87,.98-3.68,2.92-3.68,.86,0,1.64,.36,2.19,.95,.68-.13,1.32-.38,1.9-.73-.22,.7-.7,1.29-1.32,1.66,.61-.07,1.18-.23,1.72-.47-.4,.6-.91,1.13-1.49,1.55Z" style="fill: #6c1d5f;"/>
</svg>