<svg width="226" height="76" viewBox="0 0 226 76" fill="none" xmlns="http://www.w3.org/2000/svg">
<path fill-rule="evenodd" clip-rule="evenodd" d="M118.836 41.9237H87.7735C88.2183 47.4286 92.3328 50.9487 98.6714 50.724C102.601 50.724 106.048 49.0763 107.901 45.8932H117.65C114.388 54.4314 107.568 59.2622 98.968 59.2622C93.1854 59.2622 88.4036 57.2774 84.4003 53.233C80.7676 49.3759 78.6177 44.0208 78.6177 38.8529C78.6177 33.3855 80.4711 28.5547 84.0667 24.6975C87.9959 20.5408 93.1112 18.219 98.4119 18.219C105.01 18.219 111.126 21.5893 115.241 27.0942C117.65 30.6143 118.836 34.7711 118.836 39.9389V41.9237ZM87.8847 34.5837H109.05C107.605 29.4159 103.824 26.5698 98.1154 26.5698C93.519 26.5698 89.1821 29.7529 87.8847 34.5837Z" fill="white"/>
<path fill-rule="evenodd" clip-rule="evenodd" d="M132.514 6.83276V22.5235C135.999 19.6775 139.817 18.554 144.524 18.6664C149.64 18.6664 154.31 20.3141 157.906 23.8342C162.243 27.6914 164.541 33.3835 164.541 39.0756C164.541 45.2546 161.946 51.0591 157.276 55.1035C153.791 57.9495 149.529 59.5972 144.562 59.5972C140.002 59.5972 136.11 58.2866 132.514 55.4405V58.6236H123.618V6.83276H132.514ZM143.931 27.5048C137.629 27.5048 132.848 32.5228 132.848 39.2261C132.848 45.5923 137.852 50.6103 143.449 50.5729C150.418 50.5729 155.2 45.5174 155.2 39.0388C155.2 32.8599 150.233 27.5048 143.931 27.5048Z" fill="white"/>
<path fill-rule="evenodd" clip-rule="evenodd" d="M179.331 6.83276H170.731V15.5207H179.331V6.83276ZM179.331 19.5656H170.731V58.624H179.331V19.5656Z" fill="white"/>
<path fill-rule="evenodd" clip-rule="evenodd" d="M226 58.625H217.4H217.363V53.7942C215.213 57.8386 211.284 59.4863 205.316 59.4863C193.936 59.4863 185.336 50.686 185.336 38.9647C185.336 33.4598 187.19 28.4417 190.785 24.5846C194.715 20.4278 199.348 18.5554 205.131 18.5554C210.765 18.5554 214.768 20.3904 217.4 24.2475V19.5665H226V58.625ZM205.501 27.3554C199.385 27.3554 194.418 32.1862 194.418 38.5524C194.418 45.4428 199.533 50.2737 205.649 50.2737C211.284 50.2737 216.399 45.1058 216.399 39.0766C216.399 32.3734 211.135 27.3554 205.501 27.3554Z" fill="white"/>
<path d="M0.332113 75.3333H23.8014L49.1896 49.8003L74.504 75.3333H98.2685L61.0719 37.8155L98.6006 0H74.8361L49.1896 25.9051L23.6907 0H0L37.3074 37.8155L0.332113 75.3333Z" fill="white"/>
</svg>
