<?xml version="1.0" encoding="UTF-8"?>
<svg id="a" data-name="b" xmlns="http://www.w3.org/2000/svg" viewBox="0 0 18.66 18.61">
  <path d="M7.96,6.66s-.06-.04-.09-.04h-.01s-.06,.02-.11,.05c-.07,.04-.1,.08-.1,.18v5.03c0,.1,.03,.14,.09,.17,.07,.04,.1,.04,.1,.04,.06,0,.08-.02,.09-.02l4.06-2.56s.08-.04,.08-.15-.03-.13-.05-.14l-4.06-2.56Z" style="fill: #6c1d5f;"/>
  <path d="M17.58,1.08C16.87,.36,15.99,0,14.98,0H3.72C2.71,0,1.83,.36,1.1,1.07,.37,1.79,0,2.67,0,3.68V14.94c0,1.01,.37,1.89,1.1,2.6,.73,.71,1.61,1.07,2.62,1.07H14.98c1.01,0,1.88-.36,2.6-1.07,.72-.71,1.08-1.59,1.08-2.6V3.68c0-1.01-.37-1.88-1.08-2.6Zm-1.47,9.45c-.01,.27-.03,.62-.07,1.05-.04,.42-.09,.8-.16,1.13-.08,.33-.23,.59-.46,.81-.23,.22-.51,.35-.82,.39-1.15,.12-2.92,.19-5.26,.19s-4.11-.06-5.25-.19c-.31-.04-.58-.17-.82-.39-.23-.21-.38-.47-.44-.8-.07-.34-.13-.72-.17-1.14-.05-.42-.07-.76-.07-1.03v-2.38c0-.27,.03-.61,.07-1.03,.05-.42,.11-.8,.18-1.15,.06-.33,.2-.59,.44-.8,.24-.22,.51-.35,.81-.39,1.15-.12,2.91-.21,5.25-.21h0c2.34,0,4.11,.06,5.25,.19,.33,.05,.6,.17,.83,.39,.23,.22,.38,.49,.46,.81,.07,.33,.12,.72,.16,1.14,.04,.43,.07,.78,.07,1.05,.01,.28,.01,.67,.01,1.18s-.01,.91-.01,1.18Z" style="fill: #6c1d5f;"/>
  <path d="M11.99,9.51l-4.06,2.56s-.03,.02-.09,.02c0,0-.03,0-.1-.04-.06-.03-.09-.07-.09-.17V6.85c0-.1,.03-.14,.1-.18,.05-.03,.11-.04,.11-.04h.01s.09,.03,.09,.03l4.06,2.56s.05,.03,.05,.14-.08,.15-.08,.15Z" style="fill: #6c1d5f;"/>
</svg>